<svg xmlns="http://www.w3.org/2000/svg" viewBox="0 0 64 64" width="64" height="64">
  <rect width="64" height="64" rx="8" ry="8" fill="#0d95c8"/>
  <g fill="none" stroke="#fff" stroke-width="3" stroke-linecap="round" stroke-linejoin="round">
    <path d="M44 10v6a6 6 0 0 1-6 6h-2"/>
    <path d="M22 22c0 6.627 5.373 12 12 12s12-5.373 12-12V10"/>
    <path d="M38 32s2 6 6 6 6-4 6-6v-4"/>
    <path d="M18 38c0 6.627 5.373 12 12 12s12-5.373 12-12V32"/>
    <circle cx="44" cy="42" r="5"/>
    <path d="M20 26c-2 6-8 8-8 16"/>
  </g>
</svg>
